<?xml version="1.0" encoding="UTF-8"?>
<!DOCTYPE svg PUBLIC "-//W3C//DTD SVG 1.1//EN" "http://www.w3.org/Graphics/SVG/1.1/DTD/svg11.dtd">
<!-- Creator: CorelDRAW -->
<svg xmlns="http://www.w3.org/2000/svg" xml:space="preserve" width="3.0478mm" height="3.0478mm" version="1.1" style="shape-rendering:geometricPrecision; text-rendering:geometricPrecision; image-rendering:optimizeQuality; fill-rule:evenodd; clip-rule:evenodd"
viewBox="0 0 304.78 304.78"
 xmlns:xlink="http://www.w3.org/1999/xlink"
 xmlns:xodm="http://www.corel.com/coreldraw/odm/2003">
 <defs>
  <style type="text/css">
   <![CDATA[
    .fil0 {fill:#C14312}
   ]]>
  </style>
 </defs>
 <g id="Layer_x0020_1">
  <metadata id="CorelCorpID_0Corel-Layer"/>
  <path class="fil0" d="M152.39 29.09c8.94,0 17.04,3.63 22.91,9.49 5.86,5.87 9.49,13.97 9.49,22.92 0,2.98 -0.4,5.86 -1.16,8.61l70.57 54.8c0.58,0.46 1.1,0.99 1.53,1.59l22.82 0c12.11,0 22,9.91 22,22l0 105.18c0,12.11 -9.9,22 -22,22l-252.36 0c-12.09,0 -21.91,-9.87 -21.94,-21.94l-0.02 0 0 -105.24c0,-12.1 9.9,-22 21.99,-22l22.83 0c0.43,-0.6 0.94,-1.13 1.53,-1.59l70.57 -54.8c-0.77,-2.81 -1.16,-5.7 -1.16,-8.61 0,-8.95 3.63,-17.05 9.49,-22.92 5.86,-5.86 13.96,-9.49 22.91,-9.49zm78.69 97.41l-55.1 -42.79c-0.23,0.24 -0.45,0.47 -0.68,0.7 -5.87,5.86 -13.97,9.49 -22.91,9.49 -8.95,0 -17.05,-3.63 -22.91,-9.49 -0.23,-0.23 -0.46,-0.46 -0.68,-0.7l-55.1 42.79 157.38 0zm-78.69 -78.71c3.63,0 7.12,1.44 9.69,4.01 2.57,2.57 4.02,6.06 4.01,9.7 0.01,3.63 -1.44,7.12 -4.01,9.69 -2.57,2.57 -6.06,4.02 -9.69,4.01 -3.79,0 -7.21,-1.53 -9.69,-4.01 -2.58,-2.57 -4.02,-6.06 -4.01,-9.69 -0.01,-3.64 1.43,-7.13 4.01,-9.7 2.56,-2.57 6.05,-4.02 9.69,-4.01zm-65.47 118.74c-0.2,3.06 -0.39,6.09 -0.53,9.06 -0.18,3.03 -0.39,6.05 -0.64,9.08l-20.68 1.07 0 6.14 17.94 0 -0.97 15.11 -17.07 0.48 0.1 28.87 -24.66 0.49 1.56 -70.3 44.95 0zm66.44 23.31c0,10.15 -3.41,16.26 -11.8,21.55l11.6 20.66 -21.93 4.29 -7.5 -20.76 -6.06 0.18 -0.86 20.29 -20.97 0c0.17,-7.41 0.32,-14.8 0.46,-22.14 0.15,-7.34 0.32,-14.72 0.52,-22.12 0.05,-3.75 0.12,-7.44 0.18,-11.12 0.07,-3.68 0.2,-7.37 0.4,-11.12 10.51,-3.94 27.23,-5.8 37.94,-2.66 3.46,1.03 6.54,2.56 9.2,4.61 2.66,2.05 4.79,4.61 6.41,7.66 1.61,3.06 2.41,6.62 2.41,10.68zm-24.06 -5.14c-0.73,-0.84 -1.63,-1.49 -2.73,-1.95 -2.27,-1.01 -5.14,-0.84 -7.52,-0.24l-0.78 18.14 1.16 0c2.79,0 5.81,-0.68 8.17,-2.19 1.15,-0.75 2.1,-1.7 2.83,-2.88 1.92,-3.06 1.23,-8.2 -1.13,-10.88zm80.42 -18.17c-0.2,3.06 -0.38,6.09 -0.53,9.06 -0.17,3.03 -0.38,6.05 -0.63,9.08l-20.69 1.07 -0.48 6.14 14.53 0 -1.07 15.11 -14.62 0.48 -0.5 7.13 20.68 0c-0.2,3.55 -0.4,7.1 -0.62,10.65 -0.21,3.53 -0.4,7.06 -0.56,10.6l-42.02 0.98 1.57 -70.3 44.94 0zm54.65 0c-0.2,3.06 -0.39,6.09 -0.54,9.06 -0.17,3.03 -0.38,6.05 -0.63,9.08l-20.68 1.07 -0.48 6.14 14.52 0 -1.06 15.11 -14.63 0.48 -0.5 7.13 20.68 0c-0.19,3.55 -0.4,7.1 -0.61,10.65 -0.21,3.52 -0.4,7.07 -0.56,10.6l-42.02 0.98 1.57 -70.3 44.94 0z"/>
 </g>
</svg>
