<?xml version="1.0" encoding="UTF-8"?>
<!DOCTYPE svg PUBLIC "-//W3C//DTD SVG 1.1//EN" "http://www.w3.org/Graphics/SVG/1.1/DTD/svg11.dtd">
<!-- Creator: CorelDRAW -->
<svg xmlns="http://www.w3.org/2000/svg" xml:space="preserve" width="3.0478mm" height="3.0478mm" version="1.1" style="shape-rendering:geometricPrecision; text-rendering:geometricPrecision; image-rendering:optimizeQuality; fill-rule:evenodd; clip-rule:evenodd"
viewBox="0 0 304.78 304.78"
 xmlns:xlink="http://www.w3.org/1999/xlink"
 xmlns:xodm="http://www.corel.com/coreldraw/odm/2003">
 <defs>
  <style type="text/css">
   <![CDATA[
    .fil0 {fill:#C14312}
   ]]>
  </style>
 </defs>
 <g id="Layer_x0020_1">
  <metadata id="CorelCorpID_0Corel-Layer"/>
  <path class="fil0" d="M209.12 273.71l11.72 -59.49 11.86 17.9c25.57,-10.28 39.91,-27.18 42.06,-53.23 21,36.71 8.25,69.62 -18.35,88.89l12.11 18.23 -59.4 -12.3zm-189.6 -60.77l168.52 -168.51 87.61 87.61 -168.52 168.51 -87.61 -87.61zm102.35 -66.24c14.25,-14.26 37.3,-14.26 51.58,0 14.26,14.25 14.26,37.31 0,51.58 -14.25,14.25 -37.31,14.25 -51.58,0 -14.28,-14.27 -14.28,-37.33 0,-51.58zm-60.85 51.41l112.04 -112.04c7.14,7.14 18.77,7.14 25.88,0l34.66 34.63c-7.14,7.14 -7.14,18.76 0,25.88l-112.05 112.06c-7.13,-7.14 -18.76,-7.14 -25.87,0l-34.66 -34.63c7.14,-7.14 7.14,-18.76 0,-25.9zm74.11 -181.58l-11.72 59.49 -11.86 -17.9c-25.56,10.28 -39.92,27.18 -42.06,53.23 -21,-36.71 -8.25,-69.63 18.35,-88.89l-12.08 -18.24 59.37 12.31z"/>
 </g>
</svg>
