<?xml version="1.0" encoding="UTF-8"?>
<!DOCTYPE svg PUBLIC "-//W3C//DTD SVG 1.1//EN" "http://www.w3.org/Graphics/SVG/1.1/DTD/svg11.dtd">
<!-- Creator: CorelDRAW -->
<svg xmlns="http://www.w3.org/2000/svg" xml:space="preserve" width="3.0478mm" height="3.0478mm" version="1.1" style="shape-rendering:geometricPrecision; text-rendering:geometricPrecision; image-rendering:optimizeQuality; fill-rule:evenodd; clip-rule:evenodd"
viewBox="0 0 304.78 304.78"
 xmlns:xlink="http://www.w3.org/1999/xlink"
 xmlns:xodm="http://www.corel.com/coreldraw/odm/2003">
 <defs>
  <style type="text/css">
   <![CDATA[
    .fil0 {fill:#C14312}
   ]]>
  </style>
 </defs>
 <g id="Layer_x0020_1">
  <metadata id="CorelCorpID_0Corel-Layer"/>
  <path class="fil0" d="M152.39 4.22c81.82,0 148.17,66.35 148.17,148.17 0,81.82 -66.35,148.17 -148.17,148.17 -81.81,0 -148.16,-66.35 -148.16,-148.17 0,-81.82 66.35,-148.17 148.16,-148.17zm0 69.88c9.43,0 18.48,1.67 26.86,4.73l34.48 -34.48c-18.09,-10.31 -39.03,-16.19 -61.34,-16.19 -22.55,0 -43.69,6.01 -61.92,16.52l34.4 34.4c8.56,-3.22 17.84,-4.98 27.52,-4.98zm74.58 54.41c2.41,7.53 3.71,15.55 3.71,23.88 0,9.68 -1.76,18.96 -4.98,27.52l34.4 34.41c10.51,-18.23 16.53,-39.38 16.53,-61.93 0,-21.26 -5.35,-41.28 -14.77,-58.78l-34.89 34.9zm-51.39 98.68c-7.32,2.27 -15.12,3.5 -23.19,3.5 -8.32,0 -16.35,-1.31 -23.88,-3.73l-34.89 34.89c17.5,9.42 37.51,14.77 58.77,14.77 21.02,0 40.82,-5.23 58.18,-14.45l-34.99 -34.98zm-96.74 -47.94c-3.07,-8.38 -4.74,-17.43 -4.74,-26.87 0,-8.06 1.23,-15.85 3.49,-23.18l-34.98 -34.99c-9.21,17.36 -14.45,37.16 -14.45,58.18 0,22.3 5.89,43.24 16.19,61.34l34.49 -34.48zm127.75 -26.86c0,2.67 -0.19,5.29 -0.57,7.86 -0.05,0.38 -0.11,0.78 -0.17,1.16l-0.01 0.03c-2.25,13.38 -9.4,25.08 -19.53,33.22l-0.07 0.06c-0.26,0.21 -0.53,0.42 -0.79,0.63l-0.16 0.11c-2.11,1.61 -4.34,3.08 -6.66,4.36 -0.32,0.18 -0.64,0.36 -0.96,0.52l-0.12 0.07c-0.32,0.16 -0.65,0.33 -0.96,0.49l-0.02 0.01c-2.41,1.2 -4.93,2.23 -7.49,3.06l-0.09 0.03c-0.36,0.12 -0.71,0.23 -1.06,0.33l-0.05 0.01c-0.36,0.12 -0.73,0.22 -1.1,0.33l-0.03 0c-2.25,0.61 -4.55,1.09 -6.86,1.4l-0.19 0.03c-0.34,0.05 -0.68,0.08 -1.03,0.14l-0.19 0.02c-0.34,0.03 -0.68,0.06 -1.03,0.1l-0.23 0.02 -1.02 0.08 -0.18 0.02c-0.36,0.02 -0.72,0.04 -1.09,0.05 -0.84,0.04 -1.68,0.06 -2.54,0.06 -1.14,0 -2.28,-0.04 -3.41,-0.11 -12.99,-0.81 -24.75,-6.2 -33.66,-14.57 -2.21,-2.06 -4.25,-4.33 -6.08,-6.74l-0.07 -0.09c-0.22,-0.28 -0.44,-0.58 -0.65,-0.87l-0.04 -0.05c-0.21,-0.29 -0.43,-0.6 -0.64,-0.89l-0.03 -0.06c-1.28,-1.85 -2.47,-3.8 -3.51,-5.81l-0.06 -0.1c-0.15,-0.3 -0.3,-0.6 -0.45,-0.89l-0.08 -0.17c-0.14,-0.29 -0.29,-0.59 -0.42,-0.88l-0.11 -0.21c-0.13,-0.3 -0.26,-0.6 -0.39,-0.9l-0.07 -0.16c-0.14,-0.31 -0.27,-0.62 -0.4,-0.93l-0.08 -0.19c-0.13,-0.31 -0.25,-0.62 -0.38,-0.93l-0.01 -0.05c-0.54,-1.4 -1.03,-2.83 -1.46,-4.27l-0.05 -0.17c-0.09,-0.32 -0.18,-0.64 -0.26,-0.96l-0.06 -0.21c-0.09,-0.31 -0.17,-0.64 -0.25,-0.96l-0.06 -0.24c-0.07,-0.3 -0.15,-0.62 -0.21,-0.92l-0.07 -0.3c-0.06,-0.31 -0.13,-0.64 -0.2,-0.95l-0.02 -0.12c-0.21,-1.12 -0.4,-2.24 -0.55,-3.39 -0.31,-2.35 -0.47,-4.72 -0.47,-7.1 0,-0.85 0.03,-1.7 0.06,-2.54 0.79,-17.13 9.53,-32.18 22.62,-41.56 18.5,-11.93 44.49,-11.94 63,-0.02 12.89,9.21 21.57,23.92 22.61,40.71l0.02 -0.02c0.06,1.12 0.09,2.26 0.09,3.42z"/>
 </g>
</svg>
