<?xml version="1.0" encoding="UTF-8"?>
<!DOCTYPE svg PUBLIC "-//W3C//DTD SVG 1.1//EN" "http://www.w3.org/Graphics/SVG/1.1/DTD/svg11.dtd">
<!-- Creator: CorelDRAW -->
<svg xmlns="http://www.w3.org/2000/svg" xml:space="preserve" width="3.0478mm" height="3.0478mm" version="1.1" style="shape-rendering:geometricPrecision; text-rendering:geometricPrecision; image-rendering:optimizeQuality; fill-rule:evenodd; clip-rule:evenodd"
viewBox="0 0 304.78 304.78"
 xmlns:xlink="http://www.w3.org/1999/xlink"
 xmlns:xodm="http://www.corel.com/coreldraw/odm/2003">
 <defs>
  <style type="text/css">
   <![CDATA[
    .fil0 {fill:#C14312}
   ]]>
  </style>
 </defs>
 <g id="Layer_x0020_1">
  <metadata id="CorelCorpID_0Corel-Layer"/>
  <path class="fil0" d="M97.76 141.31c0.11,-1.28 0.47,-2.53 1.06,-3.68 -3.46,-2.64 -5.61,-6.64 -5.91,-10.97l-0.34 0c-0.74,0 -1.47,-0.19 -2.12,-0.56 -1.1,-0.66 -1.95,-1.67 -2.41,-2.86 -1.08,-2.42 -1.95,-9.05 0.8,-10.92l-0.48 -0.44 0 -0.72c0,-1.33 -0.13,-2.94 -0.18,-4.61 0,-6.17 -0.21,-10.39 -5.18,-11.88l-2.12 -0.65 1.4 -1.74c3.67,-4.64 7.85,-8.87 12.44,-12.61 4.14,-3.53 9.12,-5.94 14.46,-6.99 5.02,-0.81 10.14,0.63 14.01,3.93 1.32,1.19 2.53,2.5 3.59,3.93 10.73,1.04 16.34,9.26 15.83,18.98 -0.16,5.06 -2.24,9.87 -5.8,13.47 0.63,0.01 1.24,0.17 1.8,0.46 1.8,1.21 2.47,3.54 1.59,5.52 -0.53,1.68 -1.22,3.64 -1.85,5.28 -0.8,2.21 -1.93,2.62 -4.15,2.41 -0.12,5.49 -2.65,8.17 -6.05,11.4l0.78 2.75c-2.15,10.41 -25,11.57 -31.17,0.58l0 -0.08zm53.22 107.76c-22.71,0 -7.76,1.78 -4.67,-22.88 4.65,-36.9 39.69,-36.9 44.88,0 3.33,23.72 17.57,22.88 -4.65,22.88l-8.75 0c0,6.05 -0.97,5.35 5.27,8.75 3.21,1.73 9.17,3.01 14.25,5.01 7.76,-6.6 21.53,-2.24 22.95,-14.46 0.22,-1.86 -4.15,-6.41 -5.13,-9.79 -2.43,-3.74 -2.64,-8.5 -0.56,-12.44 0.64,-1.71 0.83,-3.57 0.53,-5.37 0,-19.65 34.42,-19.67 34.42,0 0,2.41 -0.55,3.81 0.78,5.73 2.26,3.28 1.1,9.09 -0.8,12.06 -1.23,3.56 -5.86,7.78 -5.47,9.78 3.18,16.2 24.37,-0.67 26.37,24.11l-236.02 0c2.53,-29 35.24,-11.11 37.63,-31.36 0.27,-2.29 -5.16,-8.51 -6.41,-12.73 -2.65,-4.24 -3.62,-10.99 -0.7,-15.47 1.16,-1.79 0.67,-3.5 0.67,-5.94 0,-24.42 42.77,-24.42 42.77,0 0,3.09 -0.7,3.96 0.96,6.39 2.82,4.08 1.38,11.26 -0.99,15.02 -1.51,4.41 -7.23,10.22 -6.8,12.73 3.6,18.22 27.56,3.9 34.07,24.1 5.23,-3.23 14.07,-4.41 19.62,-7.73 5.55,-3.33 4.56,-2.82 4.51,-8.32l-8.73 -0.07zm-91.96 -73.99c2.17,-27.98 7.42,-17.5 31.34,-32.44 6.58,17.12 38.23,18.25 45.17,0 20.56,13.19 30.85,3.23 30.73,32.44l-76.58 0c-0.92,0 -1.83,0 -2.72,0 -0.89,0 -1.79,0 -2.68,0l-25.26 0zm-47.73 15.39l17.04 0c-2.67,-0.7 -4.54,-3.1 -4.55,-5.86l0 -124.29c0.02,-3.33 2.72,-6.02 6.05,-6.03l114.54 0 0 6.68 -113.07 0 0 123.44 30.15 0c-5.7,5.21 -9.1,12.47 -9.45,20.18l-40.71 0c-3.9,-0.01 -7.05,-3.16 -7.07,-7.06 0.02,-3.9 3.17,-7.05 7.07,-7.06zm101.24 -6.06l160.16 0 0 -123.44 -6.78 0 0 -6.68 7.45 0c3.33,0.01 6.02,2.7 6.03,6.03l0 124.27c0.01,2.75 -1.86,5.17 -4.53,5.85l18.63 0c3.9,0.02 7.05,3.17 7.07,7.06 0,3.91 -3.16,7.08 -7.07,7.09l-35.46 0c-3.62,-4.77 -8.62,-8.32 -14.31,-10.17 -7.43,-2.61 -15.51,-2.61 -22.93,0 -5.7,1.87 -10.7,5.42 -14.34,10.19l-7.98 0c-3.01,-5.81 -7.43,-10.79 -12.85,-14.46 -5.09,-3.41 -11.08,-5.23 -17.21,-5.23 -6.13,0.06 -12.1,1.96 -17.14,5.45 -5.24,3.65 -9.51,8.53 -12.41,14.22l-16.88 0c-0.36,-7.71 -3.75,-14.96 -9.45,-20.18zm61.57 -152.08l62.02 0c8.19,0.03 14.82,6.66 14.85,14.85l0 38.91c-0.03,8.19 -6.66,14.82 -14.85,14.85l-36.35 0 -22.54 19.28c-0.49,0.46 -1.15,0.69 -1.82,0.63 -0.66,-0.04 -1.28,-0.37 -1.7,-0.89 -0.43,-0.49 -0.65,-1.14 -0.6,-1.79l1.2 -17.33 -0.21 0c-8.19,-0.03 -14.82,-6.66 -14.85,-14.85l0 -38.81c0.03,-8.19 6.66,-14.82 14.85,-14.85zm25.02 18.27l19.28 13.43c0.84,0.52 1.35,1.43 1.36,2.41 0.01,0.96 -0.45,1.86 -1.24,2.41l-19.28 13.24c-0.51,0.43 -1.16,0.67 -1.83,0.67 -1.56,-0.07 -2.78,-1.36 -2.75,-2.92l0 -26.9c0,-1.58 1.29,-2.87 2.87,-2.87 0.61,0 1.2,0.2 1.69,0.56l-0.1 -0.03zm-23.41 89.68c-1.94,-0.16 -3.43,-1.78 -3.43,-3.73 0,-1.94 1.49,-3.57 3.43,-3.72l78.11 0c1.94,0.15 3.43,1.78 3.43,3.72 0,1.95 -1.49,3.57 -3.43,3.73l-78.11 0zm22.86 23.76c-1.95,-0.15 -3.44,-1.77 -3.44,-3.72 0,-1.95 1.49,-3.57 3.44,-3.72l55.44 0c1.4,-0.11 2.75,0.57 3.48,1.77 0.74,1.19 0.74,2.71 0,3.91 -0.73,1.2 -2.08,1.88 -3.48,1.76l-55.44 0z"/>
 </g>
</svg>
