<svg width="52" height="54" viewBox="0 0 52 54" fill="none" xmlns="http://www.w3.org/2000/svg">
<path d="M8.47935 0H34.0908C38.2327 0.0118532 41.5875 3.36666 41.5994 7.50865L41.5994 24.0277C41.5875 28.1697 38.2327 31.5245 34.0908 31.5363H21.3217L10.1019 41.1854C9.5366 41.6653 8.68961 41.5978 8.20749 41.0343C7.97256 40.7709 7.85289 40.4243 7.87521 40.072L8.46209 31.5363C4.32684 31.515 0.982498 28.163 0.970704 24.0277L0.970703 7.50865C0.982556 3.36665 4.33736 0.0118507 8.47935 0ZM29.7193 13.4379C31.1493 13.4379 32.3085 14.5971 32.3085 16.0271C32.3085 17.4571 31.1493 18.6163 29.7193 18.6163C28.2894 18.6163 27.1302 17.4571 27.1302 16.0271C27.1302 14.5971 28.2894 13.4379 29.7193 13.4379ZM21.2829 13.4379C22.7129 13.4379 23.8721 14.5971 23.8721 16.0271C23.8721 17.4571 22.7129 18.6163 21.2829 18.6163C19.8529 18.6163 18.6937 17.4571 18.6937 16.0271C18.6937 14.5971 19.8529 13.4379 21.2829 13.4379ZM12.8508 13.4379C14.2807 13.4379 15.44 14.5971 15.44 16.0271C15.44 17.4571 14.2807 18.6163 12.8508 18.6163C11.4208 18.6163 10.2616 17.4571 10.2616 16.0271C10.2616 14.5971 11.4208 13.4379 12.8508 13.4379ZM45.1336 12.1433C48.5514 12.8057 51.0218 15.7952 51.0284 19.2765V35.8171C51.0047 39.8125 47.7654 43.0421 43.77 43.0539H43.5068L44.1152 51.8572C44.1334 52.1425 44.0406 52.4239 43.8563 52.6425C43.463 53.1023 42.7715 53.1564 42.3114 52.7634L31.0182 42.7691H16.1477L23.4837 35.3209H39.0188C42.4149 35.309 45.165 32.5589 45.1768 29.1629L45.1768 12.6396C45.1768 12.4756 45.1768 12.3116 45.1768 12.1519L45.1336 12.1433ZM34.0908 2.69707H8.47935C5.82494 2.70419 3.67489 4.85424 3.66778 7.50865L3.66778 24.0277C3.67489 26.6821 5.82494 28.8321 8.47935 28.8393H10.0027C10.7441 28.89 11.3053 29.5302 11.2584 30.2719L10.788 37.0427L19.8761 29.2319C20.1287 28.9815 20.4697 28.8405 20.8255 28.8393L34.0908 28.8393C36.7432 28.8274 38.8905 26.6801 38.9023 24.0277V7.50865C38.8905 4.8562 36.7432 2.70889 34.0908 2.69707Z" fill="white"/>
</svg>
