<svg width="31" height="30" viewBox="0 0 31 30" fill="none" xmlns="http://www.w3.org/2000/svg">
<g opacity="0.65">
<path fill-rule="evenodd" clip-rule="evenodd" d="M19.874 23.598L20.705 19.383L21.545 20.652C23.357 19.923 24.374 18.726 24.527 16.881C25.91 18.969 25.337 21.783 23.249 23.166C23.24 23.172 23.234 23.175 23.225 23.181L24.083 24.474L19.874 23.601V23.598ZM6.43698 19.293L18.383 7.34699L24.593 13.557L12.65 25.5L6.43998 19.29L6.43698 19.293ZM13.691 14.598C14.699 13.59 16.337 13.587 17.345 14.598C18.353 15.606 18.356 17.244 17.345 18.252C16.337 19.26 14.699 19.263 13.691 18.252C12.683 17.244 12.68 15.606 13.691 14.598ZM9.37998 18.24L17.321 10.302C17.828 10.809 18.647 10.809 19.154 10.302L21.611 12.756C21.104 13.263 21.104 14.082 21.611 14.589L13.67 22.53C13.163 22.023 12.344 22.023 11.837 22.53L9.37998 20.076C9.88698 19.569 9.88698 18.747 9.37998 18.24ZM14.633 5.37299L13.802 9.58799L12.962 8.31899C11.15 9.04799 10.133 10.248 9.97998 12.09C8.59698 10.002 9.16998 7.18799 11.258 5.80499C11.267 5.79899 11.273 5.79599 11.282 5.78999L10.427 4.49699L14.636 5.36999L14.633 5.37299Z" fill="#333333"/>
</g>
</svg>
