<svg width="31" height="30" viewBox="0 0 31 30" fill="none" xmlns="http://www.w3.org/2000/svg">
<path opacity="0.65" fill-rule="evenodd" clip-rule="evenodd" d="M15.09 6.261C16.359 6.261 17.388 7.293 17.385 8.562C17.385 8.766 17.358 8.97 17.304 9.168L22.305 13.053C22.347 13.086 22.383 13.122 22.413 13.167H24.03C24.891 13.167 25.587 13.866 25.59 14.727V22.182C25.59 23.043 24.891 23.739 24.03 23.742H6.14701C5.28901 23.742 4.59301 23.046 4.59001 22.188V14.73C4.59001 13.869 5.28901 13.173 6.15001 13.17H7.76701C7.79701 13.128 7.83301 13.089 7.87501 13.056L12.876 9.171C12.54 7.947 13.257 6.684 14.481 6.348C14.679 6.294 14.883 6.267 15.09 6.267V6.261ZM20.667 13.164L16.764 10.131L16.716 10.182C15.819 11.079 14.367 11.079 13.47 10.182L13.422 10.131L9.51601 13.164H20.667ZM15.09 7.587C15.627 7.587 16.062 8.022 16.062 8.559C16.062 9.096 15.627 9.531 15.09 9.531C14.553 9.531 14.118 9.096 14.118 8.559C14.118 8.301 14.22 8.055 14.403 7.872C14.586 7.689 14.832 7.587 15.09 7.587ZM10.449 16.002C10.434 16.218 10.422 16.431 10.413 16.644C10.404 16.857 10.386 17.073 10.368 17.286L8.90101 17.364V17.802H10.173L10.101 18.87L8.89201 18.906L8.89801 20.952L7.15201 20.985L7.26301 16.002H10.449ZM15.156 17.652C15.204 18.282 14.877 18.879 14.319 19.179L15.144 20.643L13.59 20.949L13.059 19.476L12.63 19.488L12.567 20.925H11.079C11.091 20.4 11.103 19.878 11.112 19.356C11.121 18.834 11.136 18.312 11.148 17.787C11.151 17.523 11.157 17.259 11.16 17.001C11.163 16.743 11.175 16.479 11.187 16.215C12.048 15.903 12.978 15.837 13.875 16.026C14.109 16.095 14.331 16.206 14.526 16.353C14.715 16.5 14.871 16.683 14.979 16.896C15.096 17.13 15.156 17.391 15.15 17.652H15.156ZM13.452 17.286C13.398 17.226 13.332 17.178 13.26 17.148C13.089 17.085 12.903 17.079 12.726 17.13L12.672 18.414H12.753C12.957 18.414 13.158 18.363 13.332 18.258C13.413 18.207 13.482 18.135 13.533 18.054C13.659 17.805 13.629 17.502 13.452 17.283V17.286ZM19.152 15.996C19.137 16.212 19.125 16.425 19.116 16.638C19.107 16.851 19.089 17.067 19.071 17.28L17.604 17.358L17.571 17.793H18.6L18.522 18.864L17.484 18.897L17.448 19.401H18.915C18.9 19.653 18.888 19.905 18.87 20.157C18.852 20.409 18.843 20.658 18.831 20.907L15.855 20.976L15.966 15.993H19.152V15.996ZM23.025 15.996C23.01 16.212 22.998 16.425 22.989 16.638C22.98 16.851 22.962 17.067 22.944 17.28L21.477 17.358L21.444 17.793H22.473L22.398 18.864L21.36 18.897L21.324 19.401H22.791C22.776 19.653 22.764 19.905 22.746 20.157C22.731 20.406 22.719 20.658 22.707 20.907L19.731 20.976L19.842 15.993H23.028L23.025 15.996Z" fill="#333333"/>
</svg>
