<svg width="31" height="30" viewBox="0 0 31 30" fill="none" xmlns="http://www.w3.org/2000/svg">
<g opacity="0.65">
<path fill-rule="evenodd" clip-rule="evenodd" d="M15.97 4.5C21.769 4.5 26.47 9.201 26.47 15C26.47 20.799 21.769 25.5 15.97 25.5C10.171 25.5 5.46997 20.799 5.46997 15C5.46997 9.201 10.171 4.5 15.97 4.5ZM15.97 9.453C16.618 9.453 17.263 9.567 17.875 9.789L20.32 7.344C17.608 5.805 14.287 5.814 11.584 7.368L14.023 9.801C14.647 9.567 15.307 9.447 15.973 9.447L15.97 9.453ZM21.256 13.314C21.637 14.505 21.604 15.786 21.166 16.956L23.605 19.395C25.123 16.755 25.168 13.521 23.731 10.839L21.259 13.314H21.256ZM17.614 20.307C16.525 20.643 15.361 20.637 14.278 20.292L11.806 22.764C14.392 24.153 17.5 24.159 20.095 22.788L17.617 20.31L17.614 20.307ZM10.759 16.908C10.345 15.768 10.312 14.523 10.672 13.362L8.19397 10.884C6.78697 13.542 6.83197 16.737 8.31697 19.353L10.762 16.908H10.759ZM19.813 15.006C19.813 15.192 19.801 15.378 19.774 15.564C19.771 15.591 19.765 15.618 19.762 15.645C19.606 16.575 19.114 17.415 18.379 18.006H18.373L18.316 18.054L18.304 18.063C18.154 18.177 17.995 18.279 17.833 18.372L17.764 18.408H17.755L17.686 18.447C17.515 18.531 17.338 18.606 17.155 18.663H17.149L17.074 18.687H17.071L16.993 18.711C16.834 18.756 16.672 18.789 16.507 18.81H16.495L16.42 18.819H16.405L16.33 18.825H16.312L16.237 18.831H16.15C16.09 18.834 16.03 18.84 15.97 18.84C15.889 18.84 15.808 18.84 15.73 18.831C14.839 18.777 13.996 18.411 13.345 17.799C13.189 17.652 13.045 17.493 12.916 17.322L12.91 17.316L12.865 17.253L12.811 17.193C12.718 17.061 12.637 16.923 12.562 16.782V16.776L12.526 16.713L12.52 16.701L12.49 16.638L12.484 16.623L12.457 16.56L12.451 16.548C12.442 16.527 12.433 16.503 12.424 16.482L12.418 16.467L12.391 16.401C12.352 16.302 12.316 16.2 12.289 16.098V16.086C12.283 16.062 12.277 16.041 12.271 16.017V16.002C12.262 15.981 12.256 15.957 12.25 15.933V15.915C12.241 15.894 12.235 15.87 12.229 15.849V15.828C12.22 15.807 12.214 15.783 12.211 15.759V15.75C12.196 15.672 12.181 15.591 12.172 15.51C12.151 15.342 12.139 15.174 12.139 15.006C12.139 14.946 12.139 14.886 12.142 14.826C12.193 13.65 12.778 12.561 13.735 11.874C15.103 11.028 16.831 11.028 18.199 11.874C19.141 12.546 19.729 13.605 19.801 14.76C19.804 14.841 19.807 14.919 19.807 15.003L19.813 15.006Z" fill="#333333"/>
</g>
</svg>
