<svg width="33" height="31" viewBox="0 0 33 31" fill="none" xmlns="http://www.w3.org/2000/svg">
<path d="M11.8312 9.4082H18.3394V12.7435H18.4335C19.3367 11.1182 21.5547 9.4082 24.857 9.4082C31.7298 9.4082 32.9999 13.6843 32.9999 19.2469V30.5769H26.2118V20.5335C26.2118 18.1391 26.1648 15.0555 22.6837 15.0555C19.1509 15.0555 18.6122 17.664 18.6122 20.3595V30.5769H11.8312V9.4082Z" fill="#333333"/>
<rect x="-0.00012207" y="9" width="7" height="22" fill="#333333"/>
<path d="M7.12705 3.52812C7.12705 5.47564 5.5441 7.05623 3.59893 7.05623C1.6514 7.05623 0.0708008 5.47564 0.0708008 3.52812C0.0708008 1.5806 1.6514 0 3.59893 0C5.5441 0 7.12705 1.5806 7.12705 3.52812Z" fill="#333333"/>
</svg>
