<svg xmlns="http://www.w3.org/2000/svg" xmlns:xlink="http://www.w3.org/1999/xlink" id="Layer_1" viewBox="0 0 100 100"><defs><style>.cls-1{fill:none;}.cls-2{clip-path:url(#clippath);}.cls-3{fill:#c14312;}</style><clipPath id="clippath"><rect class="cls-1" x="15" y="15" width="70" height="70"></rect></clipPath></defs><rect id="Rectangle_138" class="cls-3" x="14.89" y="17.4" width="15" height="7"></rect><rect id="Rectangle_139" class="cls-3" x="40.89" y="18.4" width="18" height="6"></rect><rect id="Rectangle_140" class="cls-3" x="69.89" y="17.4" width="15" height="7"></rect><rect id="Rectangle_141" class="cls-3" x="32.89" y="15.4" width="6" height="20"></rect><rect id="Rectangle_142" class="cls-3" x="60.89" y="15.4" width="7" height="20"></rect><rect id="Rectangle_143" class="cls-3" x="40.89" y="26.4" width="18" height="7"></rect><g id="Group_112"><g class="cls-2"><g id="Group_111"><path id="Path_37" class="cls-3" d="M21.08,67.03h11.27v11.27c-5.67-1.16-10.1-5.6-11.27-11.27M78.59,26.56h-8.67v5.78h8.67v46.25H35.23v-13.01c0-.8-.65-1.44-1.44-1.44h-13.01v-31.8h8.67v-5.78h-8.67c-3.19,0-5.78,2.59-5.78,5.78v31.8c.02,11.17,9.07,20.22,20.23,20.23h43.36c3.19,0,5.78-2.59,5.78-5.78V32.34c0-3.19-2.59-5.78-5.78-5.78"></path><rect id="Rectangle_144" class="cls-3" x="39" y="68" width="29" height="2"></rect><rect id="Rectangle_145" class="cls-3" x="39" y="73" width="7" height="3"></rect><path id="Path_38" class="cls-3" d="M38.44,53.47c-2.86,1.39-6.1,2.96-6.1,6.33,0,.8,.65,1.44,1.45,1.44h13.01v-2.89h-10.91c1.15-.95,2.44-1.72,3.82-2.28,3.16-1.53,7.09-3.44,7.09-7.84,.13-3.86-2.9-7.1-6.77-7.23-.15,0-.31,0-.46,0-3.86-.13-7.1,2.9-7.23,6.77,0,.15,0,.31,0,.46v1.44h2.89v-1.44c-.13-2.27,1.61-4.21,3.88-4.34,.15,0,.3,0,.46,0,1.1-.01,2.17,.37,3.01,1.08,.9,.83,1.39,2.03,1.32,3.25,0,2.4-2.17,3.64-5.47,5.23"></path><path id="Path_39" class="cls-3" d="M59.8,43.91c2.35,0,4.34,1.33,4.34,2.89s-1.99,2.89-4.34,2.89-4.34-1.33-4.34-2.89,1.99-2.89,4.34-2.89m4.34,11.56c0,1.56-1.99,2.89-4.34,2.89s-4.34-1.33-4.34-2.89,1.99-2.89,4.34-2.89,4.34,1.33,4.34,2.89m-11.56-8.67c.05,1.69,.89,3.25,2.27,4.22,.05,.03,.1,.07,.15,.11-.05,.03-.1,.07-.15,.11-1.38,.97-2.23,2.54-2.27,4.23,.05,1.69,.89,3.25,2.27,4.22,1.44,1.04,3.18,1.58,4.96,1.56,1.78,.02,3.51-.52,4.96-1.56,1.38-.97,2.23-2.54,2.27-4.22-.05-1.69-.89-3.25-2.27-4.22-.05-.03-.1-.07-.15-.11,.05-.03,.1-.07,.15-.12,1.38-.97,2.23-2.54,2.27-4.22-.05-1.69-.89-3.25-2.27-4.22-1.44-1.04-3.18-1.58-4.96-1.55-1.78-.02-3.51,.52-4.96,1.56-1.38,.97-2.23,2.53-2.27,4.22"></path></g></g></g></svg>