<svg width="39" height="31" viewBox="0 0 39 31" fill="none" xmlns="http://www.w3.org/2000/svg">
<path d="M38.4984 3.61985C37.113 4.23374 35.6241 4.64771 34.0647 4.83587C35.6594 3.88093 36.8825 2.36619 37.4588 0.564499C35.9676 1.44888 34.314 2.091 32.5547 2.43911C31.1458 0.938479 29.1395 0 26.9191 0C22.6548 0 19.1972 3.45755 19.1972 7.71952C19.1972 8.32401 19.2631 8.91438 19.3971 9.47888C12.9783 9.15664 7.2886 6.08247 3.48057 1.41125C2.81729 2.55201 2.4386 3.87858 2.4386 5.29218C2.4386 7.97119 3.80046 10.3327 5.87264 11.7157C4.60722 11.6781 3.41707 11.33 2.37509 10.7513V10.8478C2.37509 14.5876 5.0353 17.7088 8.56578 18.4191C7.92131 18.5955 7.2392 18.6896 6.53358 18.6896C6.03258 18.6896 5.55276 18.6402 5.07999 18.5508C6.06316 21.6156 8.91389 23.8501 12.2891 23.9136C9.64774 25.9834 6.31719 27.2182 2.69968 27.2182C2.07873 27.2182 1.46484 27.1806 0.860352 27.1101C4.27793 29.2998 8.33527 30.5794 12.6937 30.5794C26.8956 30.5794 34.6645 18.8143 34.6645 8.61096C34.6645 8.27461 34.6574 7.94297 34.6386 7.61133C36.151 6.51996 37.4588 5.16281 38.4937 3.61514L38.4984 3.61985Z" fill="#333333"/>
</svg>
